<?xml version="1.0" standalone="no"?>
<!DOCTYPE svg PUBLIC "-//W3C//DTD SVG 20010904//EN"
 "http://www.w3.org/TR/2001/REC-SVG-20010904/DTD/svg10.dtd">
<svg version="1.0" xmlns="http://www.w3.org/2000/svg"
 width="1260.000000pt" height="598.000000pt" viewBox="0 0 1260.000000 598.000000"
 preserveAspectRatio="xMidYMid meet">

<g transform="translate(0.000000,598.000000) scale(0.100000,-0.100000)"
fill="#000000" stroke="none">
<path d="M0 2990 l0 -2990 2990 0 2990 0 0 2990 0 2990 -2990 0 -2990 0 0
-2990z m5928 -2 l2 -2938 -2940 0 -2940 0 0 2940 0 2940 2938 -2 2937 -3 3
-2937z"/>
<path d="M427 2513 c-4 -3 -7 -467 -7 -1030 l0 -1023 400 0 400 0 0 75 0 75
-295 0 -295 0 0 955 0 955 -98 0 c-54 0 -102 -3 -105 -7z"/>
<path d="M1420 1489 l0 -1029 185 0 185 0 0 871 c0 692 3 870 13 867 7 -3 45
-167 99 -439 85 -421 224 -1094 255 -1232 l15 -67 207 0 208 0 16 78 c149 703
222 1065 302 1494 15 80 31 152 35 158 28 45 30 -20 30 -866 l0 -864 200 0
200 0 0 1015 c0 558 -3 1021 -6 1030 -5 13 -49 15 -333 15 l-327 0 -18 -77
c-83 -373 -184 -900 -246 -1291 -22 -135 -42 -247 -45 -250 -14 -14 -25 25
-45 158 -62 428 -243 1415 -266 1452 -3 5 -154 8 -335 8 l-329 -1 0 -1030z"/>
<path d="M3617 2513 c-11 -11 -8 -1248 3 -1368 20 -212 81 -365 194 -484 171
-179 393 -255 751 -254 199 0 328 19 465 69 275 99 443 328 471 643 4 53 8
390 9 749 l0 652 -352 -2 -353 -3 -5 -725 -5 -725 -27 -46 c-82 -139 -328
-144 -406 -9 -38 67 -42 138 -42 838 l0 672 -348 0 c-192 0 -352 -3 -355 -7z"/>
<path d="M6620 2990 l0 -2990 2990 0 2990 0 0 2990 0 2990 -2990 0 -2990 0 0
-2990z m5930 0 l0 -2940 -2935 0 -2935 0 0 2940 0 2940 2935 0 2935 0 0 -2940z"/>
<path d="M7064 3297 c-2 -7 -3 -107 -2 -222 l3 -210 153 -3 152 -3 0 36 0 35
-92 1 c-51 1 -100 2 -108 3 -13 1 -15 30 -18 189 l-2 187 -41 0 c-23 0 -42 -5
-45 -13z"/>
<path d="M7478 3203 c-8 -280 26 -344 181 -345 150 -1 195 78 189 327 l-3 120
-42 3 -43 3 0 -138 c0 -201 -19 -248 -102 -248 -31 0 -45 6 -64 28 -20 24 -24
39 -24 95 0 37 -3 111 -7 165 l-6 97 -38 0 -38 0 -3 -107z"/>
<path d="M8048 3303 l-38 -4 0 -213 0 -214 53 -6 c28 -3 61 -5 72 -2 11 2 40
7 65 11 103 17 162 93 163 210 1 119 -59 192 -178 214 -58 11 -66 11 -137 4z
m152 -79 c52 -21 74 -61 74 -134 1 -104 -35 -147 -130 -157 l-54 -6 0 157 0
156 35 0 c19 0 53 -7 75 -16z"/>
<path d="M8460 3298 c0 -12 121 -419 126 -427 4 -5 85 -3 90 2 7 6 74 255 74
272 0 8 5 15 10 15 6 0 10 -7 10 -15 0 -8 16 -73 36 -145 l37 -130 46 0 46 0
63 208 c34 115 62 214 62 221 0 8 -14 11 -42 9 l-42 -3 -41 -164 c-23 -91 -44
-160 -47 -155 -5 8 -78 270 -78 279 0 3 -20 5 -44 5 -51 0 -42 16 -97 -183
l-33 -119 -44 171 -45 171 -43 0 c-28 0 -44 -4 -44 -12z"/>
<path d="M9180 3085 l0 -225 45 0 45 0 0 225 0 225 -45 0 -45 0 0 -225z"/>
<path d="M9565 3302 c-100 -37 -154 -134 -140 -251 9 -71 38 -123 88 -158 36
-25 49 -28 126 -28 60 0 98 5 124 17 l37 17 0 105 0 106 -90 0 -90 0 0 -29 c0
-28 2 -30 48 -33 l47 -3 3 -53 c3 -49 1 -53 -25 -63 -43 -16 -101 -5 -134 27
-74 71 -61 237 23 280 39 20 100 14 138 -14 26 -20 27 -20 38 -1 19 31 14 55
-15 69 -32 15 -149 23 -178 12z"/>
<path d="M9900 3060 l0 -30 90 0 90 0 0 30 0 30 -90 0 -90 0 0 -30z"/>
<path d="M8700 2285 l0 -225 45 0 45 0 0 225 0 225 -45 0 -45 0 0 -225z"/>
<path d="M9600 2285 l0 -225 45 0 45 0 0 225 0 225 -45 0 -45 0 0 -225z"/>
<path d="M10300 2285 l0 -225 45 0 45 0 0 225 0 225 -45 0 -45 0 0 -225z"/>
<path d="M11648 2490 c-60 -32 -79 -74 -64 -137 8 -37 50 -71 119 -99 55 -22
97 -56 97 -79 0 -8 -10 -25 -21 -36 -18 -18 -29 -21 -70 -16 -27 3 -62 16 -79
28 -30 22 -30 22 -45 3 -28 -37 -16 -54 56 -80 129 -46 249 12 249 120 0 50
-44 94 -132 129 -98 39 -124 93 -56 116 36 13 72 6 111 -22 27 -19 29 -19 42
-1 22 29 18 40 -19 63 -50 32 -141 37 -188 11z"/>
<path d="M7077 2448 c-4 -29 -9 -129 -13 -221 l-7 -168 39 3 39 3 6 120 c4 66
7 138 8 160 2 31 4 36 10 20 5 -11 30 -71 56 -132 l47 -113 37 0 37 0 55 133
54 132 6 -115 c4 -63 7 -136 8 -162 l1 -48 38 0 c21 0 41 2 43 4 2 2 -1 87 -8
188 -6 100 -12 198 -12 216 l-1 32 -54 0 -53 0 -54 -139 c-31 -83 -57 -135
-61 -128 -4 7 -31 69 -60 140 l-52 127 -52 0 -51 0 -6 -52z"/>
<path d="M7741 2293 c-46 -115 -85 -214 -88 -220 -4 -9 8 -13 40 -13 l46 0 17
55 18 55 91 0 91 0 18 -55 17 -55 45 0 c24 0 44 3 44 8 0 4 -37 103 -82 219
l-83 213 -46 0 -45 0 -83 -207z m158 29 c17 -46 31 -85 31 -88 0 -2 -30 -4
-66 -4 -54 0 -65 3 -61 14 3 8 18 49 33 91 15 41 28 74 30 73 1 -2 17 -41 33
-86z"/>
<path d="M8170 2494 c0 -4 32 -51 71 -105 l71 -99 -64 -85 c-35 -47 -71 -99
-81 -115 l-19 -30 49 0 49 0 59 85 c32 46 61 83 65 80 4 -2 31 -41 60 -85 l53
-80 48 0 c27 0 49 4 49 10 0 5 -34 55 -75 111 -41 56 -75 106 -75 111 0 5 29
48 63 96 88 121 86 112 28 112 l-49 0 -48 -75 c-26 -42 -51 -74 -56 -73 -4 2
-27 35 -51 73 l-42 70 -53 3 c-28 2 -52 0 -52 -4z"/>
<path d="M8976 2443 c-3 -32 -8 -110 -11 -173 -3 -63 -8 -137 -11 -163 l-6
-48 43 3 44 3 6 147 c3 82 8 150 11 153 2 3 27 -50 55 -118 l49 -122 40 -3 39
-3 49 123 c26 68 52 127 57 133 5 5 9 -26 9 -76 0 -48 3 -120 6 -162 l7 -77
40 0 40 0 -7 123 c-3 67 -9 166 -12 220 l-7 97 -52 0 -52 0 -46 -117 c-26 -65
-50 -129 -55 -143 -9 -24 -10 -23 -29 20 -10 25 -37 89 -59 142 l-39 98 -52 0
-51 0 -6 -57z"/>
<path d="M9860 2280 l0 -220 149 0 c157 0 163 2 157 46 -3 17 -14 19 -109 22
l-107 3 0 184 0 185 -45 0 -45 0 0 -220z"/>
<path d="M10671 2483 c-19 -36 -161 -398 -161 -411 0 -9 12 -12 42 -10 40 3
42 5 58 53 l17 50 90 3 90 3 19 -53 19 -53 48 -3 48 -3 -14 33 c-8 18 -47 117
-87 221 l-74 187 -43 0 c-30 0 -45 -5 -52 -17z m78 -158 c17 -44 31 -83 31
-87 0 -5 -30 -8 -66 -8 -36 0 -64 4 -62 8 2 4 16 45 33 89 16 45 30 81 32 80
1 -1 16 -38 32 -82z"/>
<path d="M11052 2283 l3 -218 40 0 40 0 5 152 5 153 85 -153 86 -152 54 0 55
0 3 218 2 217 -45 0 -44 0 -3 -151 -3 -151 -85 151 -85 151 -58 0 -57 0 2
-217z"/>
<path d="M11990 2260 l0 -30 90 0 90 0 0 30 0 30 -90 0 -90 0 0 -30z"/>
<path d="M11002 1808 c-30 -30 0 -75 43 -64 41 11 29 76 -15 76 -9 0 -21 -5
-28 -12z"/>
<path d="M11122 1808 c-16 -16 -15 -43 3 -58 20 -17 61 -5 68 20 10 38 -43 66
-71 38z"/>
<path d="M9858 1696 c-67 -24 -100 -89 -77 -154 11 -32 43 -56 141 -103 65
-31 81 -52 66 -85 -22 -47 -114 -49 -164 -3 -26 24 -28 24 -48 -6 -15 -23 -15
-25 10 -49 31 -28 124 -49 175 -39 85 16 141 91 119 159 -15 43 -53 75 -126
104 -97 38 -124 89 -60 115 39 16 85 6 121 -26 20 -18 21 -18 38 10 16 27 16
29 -2 45 -21 19 -102 46 -135 46 -12 -1 -38 -7 -58 -14z"/>
<path d="M7062 1527 c3 -166 4 -175 28 -210 29 -42 56 -56 120 -64 105 -12
189 42 209 137 6 28 11 109 11 180 l0 130 -45 0 -45 0 0 -132 c-1 -154 -10
-205 -42 -230 -30 -23 -87 -22 -118 1 -23 18 -25 27 -31 148 -4 70 -8 147 -8
171 l-1 42 -41 0 -41 0 4 -173z"/>
<path d="M7590 1480 l0 -220 40 0 40 0 0 163 0 162 39 -70 c21 -38 61 -110 89
-160 l50 -90 56 -3 56 -3 0 221 0 220 -40 0 -39 0 -3 -157 -3 -158 -88 158
-89 157 -54 0 -54 0 0 -220z"/>
<path d="M8130 1480 l0 -220 45 0 45 0 0 220 0 220 -45 0 -45 0 0 -220z"/>
<path d="M8409 1483 l87 -218 45 -3 45 -3 63 157 c35 86 74 186 87 221 l24 63
-44 0 c-32 0 -46 -5 -51 -17 -4 -10 -31 -85 -61 -167 -30 -83 -56 -152 -58
-154 -2 -2 -13 21 -23 50 -11 29 -39 106 -63 171 l-42 117 -48 0 -48 0 87
-217z"/>
<path d="M8880 1480 l0 -220 155 0 155 0 0 35 0 35 -110 0 -110 0 0 60 0 60
95 0 95 0 0 35 0 35 -95 0 -95 0 0 55 0 55 105 0 105 0 0 35 0 35 -150 0 -150
0 0 -220z"/>
<path d="M9320 1480 l0 -220 45 0 45 0 0 95 c0 52 3 95 8 95 20 0 54 -36 102
-110 l53 -80 49 0 c26 0 48 3 48 6 0 9 -89 135 -118 166 l-24 27 33 14 c55 23
74 52 73 110 0 41 -5 54 -27 73 -38 33 -88 44 -194 44 l-93 0 0 -220z m184
146 c58 -24 60 -86 4 -105 -17 -6 -46 -11 -64 -11 l-34 0 0 58 c0 32 3 62 7
65 11 11 52 8 87 -7z"/>
<path d="M10230 1480 l0 -220 45 0 45 0 0 220 0 220 -45 0 -45 0 0 -220z"/>
<path d="M10430 1665 l0 -35 75 0 75 0 0 -185 0 -185 45 0 45 0 0 185 0 185
73 0 74 0 0 35 0 35 -194 0 -193 0 0 -35z"/>
<path d="M11042 1675 c-18 -40 -162 -403 -162 -409 0 -4 19 -6 43 -6 l43 0 19
55 18 56 90 -3 90 -3 17 -50 c17 -50 17 -50 65 -53 42 -3 47 -1 41 15 -4 10
-43 109 -88 221 l-80 202 -42 0 c-36 0 -45 -4 -54 -25z m82 -153 c14 -42 26
-80 26 -85 0 -4 -29 -7 -65 -7 l-66 0 14 28 c7 15 22 53 32 85 11 31 22 57 26
57 4 0 19 -35 33 -78z"/>
<path d="M11370 1665 l0 -35 75 0 75 0 0 -185 0 -185 45 0 45 0 0 185 0 185
73 0 72 0 0 35 1 35 -193 0 -193 0 0 -35z"/>
<path d="M7786 1004 c-19 -18 -19 -20 -6 -45 18 -32 80 -19 80 17 0 17 -28 44
-45 44 -7 0 -21 -7 -29 -16z"/>
<path d="M7914 1012 c-31 -21 -18 -72 19 -72 43 0 60 35 31 64 -17 17 -33 20
-50 8z"/>
<path d="M8895 896 c-165 -46 -202 -307 -58 -409 69 -49 187 -48 252 2 23 17
23 21 11 50 -7 17 -14 31 -17 31 -2 0 -16 -9 -32 -21 -73 -54 -149 -37 -188
41 -61 119 8 265 115 245 20 -4 49 -16 65 -27 15 -11 30 -19 31 -17 8 10 26
49 26 57 0 14 -72 50 -115 55 -22 4 -62 0 -90 -7z"/>
<path d="M7077 848 c-4 -29 -9 -128 -13 -220 l-7 -168 41 0 42 0 1 93 c1 50 4
121 8 156 l6 64 51 -124 50 -124 41 -3 40 -3 48 118 c27 65 52 122 57 127 4 6
8 -19 8 -55 0 -36 3 -107 6 -157 l7 -92 40 0 40 0 -7 143 c-3 78 -9 177 -13
220 l-6 77 -51 0 -52 0 -55 -146 -56 -145 -59 145 -59 146 -51 0 -51 0 -6 -52z"/>
<path d="M7702 727 c3 -166 4 -175 28 -210 68 -99 253 -86 308 23 20 40 22 58
22 202 l0 158 -40 0 -40 0 0 -152 c0 -135 -2 -157 -20 -186 -38 -63 -111 -67
-154 -9 -19 26 -21 44 -24 188 l-4 159 -40 0 -40 0 4 -173z"/>
<path d="M8230 680 l0 -220 40 0 39 0 3 156 3 156 85 -153 85 -154 58 -3 57
-3 0 221 0 220 -40 0 -39 0 -3 -157 -3 -158 -90 158 -90 157 -52 0 -53 0 0
-220z"/>
<path d="M9240 681 l0 -221 45 0 45 0 0 95 0 95 93 0 92 0 -3 -95 -4 -95 46 0
46 0 0 221 0 220 -42 -3 -43 -3 0 -88 0 -87 -92 0 -92 0 -3 88 -3 87 -42 3
-43 3 0 -220z"/>
<path d="M9770 680 l0 -220 155 0 155 0 0 35 0 35 -110 0 -110 0 0 60 0 60 95
0 95 0 0 35 0 35 -95 0 -95 0 0 55 0 55 105 0 105 0 0 35 0 35 -150 0 -150 0
0 -220z"/>
<path d="M10217 893 c-4 -3 -7 -102 -7 -220 l0 -213 45 0 44 0 3 153 3 152 84
-152 84 -153 59 0 58 0 -2 218 -3 217 -40 0 -40 0 -3 -155 -3 -154 -72 126
c-39 70 -80 141 -89 157 -15 28 -22 31 -66 31 -27 0 -52 -3 -55 -7z"/>
</g>
</svg>
